# xmcd
#
# Track frame offsets:
#	150
#	15303
#	29462
#	39692
#	54576
#	71883
#	81283
#	90712
#	109163
#	123333
#	143713
#	158041
#	169747
#	180632
#	195765
#	226439
#
# Disc length: 3217 seconds
#
# Revision: 0
# Processed by: cddbd v1.5.2PL0 Copyright (c) Steve Scherf et al.
# Submitted via: EasyCDDAExtractor 16.0.6.1
#
DISCID=ce0c8f10
DTITLE=Ελληνικά hits 80s 2
DYEAR=2012
DGENRE=Ελληνική hits
TTITLE0=Καζούλης Βασίλης - Η Φανή [Βασ. Καζούλης]
TTITLE1=Γλυκερία - Ό,τι και να γίνει θυμήσου [Στέλ. Φωτιάδης-Πάνος Φαλάρας]
TTITLE2=Γερμανός Βαγγέλης-Αλίκη - Η μπανιέρα [Βαγγ. Γερμανός]
TTITLE3=Κούτρας Γιάννης - Τσικαμπούμ [Γ. Γιοκαρίνης-Σ. Μπουλάς]
TTITLE4=Κωνσταντίνα - Θα φύγω με τους φίλους μου για Κάϊρο [Παν. Μαθιέλλης-Σαρ
TTITLE4=Αλιβιζάτος]
TTITLE5=Κηλαηδόνης Λουκιανός - Πού βαδίζουμε, κύριοι - [Λ. Κηλαηδόνης]
TTITLE6=Τσαλιγοπούλου Ελένη - Να μ' αγαπάς [Γιώργος Ανδρέου]
TTITLE7=Μπίγαλης Κώστας - Του Αιγαίου τα μπλουζ [Κ. Μπίγαλης]
TTITLE8=Αρλέτα - Ο λύκος [Αρλέτα]
TTITLE9=2002 GR - Μαγική αυλή [Ηλ. Ασβεστόπουλος-Γ. Χατζησόγλου]
TTITLE10=Κυριαζής Χρήστος - Έλα, μωράκι μου [Χρ. Κυριαζής]
TTITLE11=Ριφιφί - Ριφιφί [Νίκος Κατσιπόδης]
TTITLE12=Κούτρας Γιάννης - Σλόγκαν [Γ. Γιοκαρίνης]
TTITLE13=Ζουγανέλης Γιάννης - Αχ! Μαρία [Γ. Ζουγανέλης]
TTITLE14=Παπαδόπουλος Λάκης - Τριαντάφυλλα [Λ. Παπαδόπουλος-Γ. Παπαδόπουλος]
TTITLE15=Τσαλιγοπούλου Ελένη - Όπου και νά 'σαι, θά 'μαι [Γιώργος Ανδρέου]
EXTD=
EXTT0=
EXTT1=
EXTT2=
EXTT3=
EXTT4=
EXTT5=
EXTT6=
EXTT7=
EXTT8=
EXTT9=
EXTT10=
EXTT11=
EXTT12=
EXTT13=
EXTT14=
EXTT15=
PLAYORDER=
